# xmcd
#
# Track frame offsets:
#	150
#	20452
#	34540
#	48632
#	71615
#	87077
#	104535
#	117585
#	136690
#	157080
#	173305
#	186772
#	214825
#
# Disc length: 3039 seconds
#
# Revision: 120
# Processed by: cddbd v1.5.2PL0 Copyright (c) Steve Scherf et al.
# Submitted via: Jack! The Knife 17 Overdose
#
DISCID=ac0bdd0d
DTITLE=The Cranberries - No Need To Argue
DYEAR=1994
DGENRE=Rock
TTITLE0=Ode To My Family
TTITLE1=I Can't Be With You
TTITLE2=Twenty-One
TTITLE3=Zombie
TTITLE4=Empty
TTITLE5=Everything I Said
TTITLE6=The Icicle Melts
TTITLE7=Disappointment
TTITLE8=Ridiculous Thoughts
TTITLE9=Dreaming My Dreams
TTITLE10=Yeat's Grave
TTITLE11=Daffodil Lament
TTITLE12=No Need To Argue
EXTD=Stephen Street
EXTT0=O'Riordan, Hogan
EXTT1=Dolores O'Riordan
EXTT2=O'Riordan, Hogan
EXTT3=Dolores O'Riordan
EXTT4=O'Riordan, Hogan
EXTT5=O'Riordan, Hogan
EXTT6=Dolores O'Riordan
EXTT7=O'Riordan, Hogan
EXTT8=O'Riordan, Hogan
EXTT9=Dolores O'Riordan
EXTT10=Dolores O'Riordan
EXTT11=Dolores O'Riordan
EXTT12=Dolores O'Riordan
PLAYORDER=
